<svg xmlns="http://www.w3.org/2000/svg" viewBox="0 0 103 63"><rect x="0" y="0" width="11" height="11" rx="2" fill="#111111"/><rect x="13" y="0" width="11" height="11" rx="2" fill="#111111"/><rect x="26" y="0" width="11" height="11" rx="2" fill="#111111"/><rect x="0" y="13" width="11" height="11" rx="2" fill="#111111"/><rect x="0" y="26" width="11" height="11" rx="2" fill="#111111"/><rect x="0" y="39" width="11" height="11" rx="2" fill="#111111"/><rect x="0" y="52" width="11" height="11" rx="2" fill="#111111"/><rect x="13" y="52" width="11" height="11" rx="2" fill="#111111"/><rect x="26" y="52" width="11" height="11" rx="2" fill="#111111"/><rect x="52" y="0" width="11" height="11" rx="2" fill="#0ab8dd"/><rect x="65" y="0" width="11" height="11" rx="2" fill="#0ab8dd"/><rect x="78" y="0" width="11" height="11" rx="2" fill="#0ab8dd"/><rect x="91" y="0" width="11" height="11" rx="2" fill="#0ab8dd"/><rect x="52" y="13" width="11" height="11" rx="2" fill="#0ab8dd"/><rect x="91" y="13" width="11" height="11" rx="2" fill="#0ab8dd"/><rect x="52" y="26" width="11" height="11" rx="2" fill="#0ab8dd"/><rect x="65" y="26" width="11" height="11" rx="2" fill="#0ab8dd"/><rect x="78" y="26" width="11" height="11" rx="2" fill="#0ab8dd"/><rect x="91" y="26" width="11" height="11" rx="2" fill="#0ab8dd"/><rect x="91" y="39" width="11" height="11" rx="2" fill="#0ab8dd"/><rect x="91" y="52" width="11" height="11" rx="2" fill="#0ab8dd"/></svg>
