<svg xmlns="http://www.w3.org/2000/svg" viewBox="0 0 120 120"><rect width="120" height="120" rx="26" fill="#0a1428"/><svg x="14" y="31" width="92" height="58" viewBox="0 0 103 63"><rect x="0" y="0" width="11" height="11" rx="2" fill="#43dcff"/><rect x="13" y="0" width="11" height="11" rx="2" fill="#43dcff"/><rect x="26" y="0" width="11" height="11" rx="2" fill="#43dcff"/><rect x="0" y="13" width="11" height="11" rx="2" fill="#43dcff"/><rect x="0" y="26" width="11" height="11" rx="2" fill="#43dcff"/><rect x="0" y="39" width="11" height="11" rx="2" fill="#43dcff"/><rect x="0" y="52" width="11" height="11" rx="2" fill="#43dcff"/><rect x="13" y="52" width="11" height="11" rx="2" fill="#43dcff"/><rect x="26" y="52" width="11" height="11" rx="2" fill="#43dcff"/><rect x="52" y="0" width="11" height="11" rx="2" fill="#ffffff"/><rect x="65" y="0" width="11" height="11" rx="2" fill="#ffffff"/><rect x="78" y="0" width="11" height="11" rx="2" fill="#ffffff"/><rect x="91" y="0" width="11" height="11" rx="2" fill="#ffffff"/><rect x="52" y="13" width="11" height="11" rx="2" fill="#ffffff"/><rect x="91" y="13" width="11" height="11" rx="2" fill="#ffffff"/><rect x="52" y="26" width="11" height="11" rx="2" fill="#ffffff"/><rect x="65" y="26" width="11" height="11" rx="2" fill="#ffffff"/><rect x="78" y="26" width="11" height="11" rx="2" fill="#ffffff"/><rect x="91" y="26" width="11" height="11" rx="2" fill="#ffffff"/><rect x="91" y="39" width="11" height="11" rx="2" fill="#43dcff"/><rect x="91" y="52" width="11" height="11" rx="2" fill="#9be7d8"/></svg></svg>
