<svg xmlns="http://www.w3.org/2000/svg" viewBox="0 0 340 63"><svg width="103" height="63" viewBox="0 0 103 63"><rect x="0" y="0" width="11" height="11" rx="2" fill="#111111"/><rect x="13" y="0" width="11" height="11" rx="2" fill="#111111"/><rect x="26" y="0" width="11" height="11" rx="2" fill="#111111"/><rect x="0" y="13" width="11" height="11" rx="2" fill="#111111"/><rect x="0" y="26" width="11" height="11" rx="2" fill="#111111"/><rect x="0" y="39" width="11" height="11" rx="2" fill="#111111"/><rect x="0" y="52" width="11" height="11" rx="2" fill="#111111"/><rect x="13" y="52" width="11" height="11" rx="2" fill="#111111"/><rect x="26" y="52" width="11" height="11" rx="2" fill="#111111"/><rect x="52" y="0" width="11" height="11" rx="2" fill="#1e4fd8"/><rect x="65" y="0" width="11" height="11" rx="2" fill="#1e4fd8"/><rect x="78" y="0" width="11" height="11" rx="2" fill="#1e4fd8"/><rect x="91" y="0" width="11" height="11" rx="2" fill="#1e4fd8"/><rect x="52" y="13" width="11" height="11" rx="2" fill="#1e4fd8"/><rect x="91" y="13" width="11" height="11" rx="2" fill="#1e4fd8"/><rect x="52" y="26" width="11" height="11" rx="2" fill="#1e4fd8"/><rect x="65" y="26" width="11" height="11" rx="2" fill="#1e4fd8"/><rect x="78" y="26" width="11" height="11" rx="2" fill="#1e4fd8"/><rect x="91" y="26" width="11" height="11" rx="2" fill="#1e4fd8"/><rect x="91" y="39" width="11" height="11" rx="2" fill="#1e4fd8"/><rect x="91" y="52" width="11" height="11" rx="2" fill="#1e4fd8"/></svg><text x="125" y="43" font-family="Space Grotesk, sans-serif" font-size="30" font-weight="600" letter-spacing="2" fill="#111111">CORENINE AI</text></svg>
